<svg width="157" height="145" viewBox="0 0 157 145" fill="none" xmlns="http://www.w3.org/2000/svg">
<path opacity="0.2" d="M99.8759 52.9459C103.762 52.9459 107.488 54.4896 110.236 57.2373C112.984 59.985 114.528 63.7117 114.528 67.5976V108.29C114.528 117.791 110.754 126.902 104.036 133.62C97.3177 140.338 88.2064 144.112 78.7058 144.112C69.2053 144.112 60.0939 140.338 53.376 133.62C46.6581 126.902 42.8841 117.791 42.8841 108.29V67.5976C42.8841 63.7117 44.4277 59.985 47.1755 57.2373C49.9232 54.4896 53.6499 52.9459 57.5358 52.9459H99.8759ZM99.8759 62.7137H57.5358C56.2405 62.7137 54.9982 63.2283 54.0823 64.1442C53.1664 65.0601 52.6519 66.3023 52.6519 67.5976V108.29C52.6519 115.2 55.3968 121.827 60.2829 126.713C65.169 131.599 71.7959 134.344 78.7058 134.344C85.6158 134.344 92.2427 131.599 97.1288 126.713C102.015 121.827 104.76 115.2 104.76 108.29V67.5976C104.76 66.3023 104.245 65.0601 103.329 64.1442C102.413 63.2283 101.171 62.7137 99.8759 62.7137ZM15.1956 52.9459H42.2589C39.6446 55.6679 37.8074 59.0409 36.9387 62.7137H15.1956C13.9003 62.7137 12.6581 63.2283 11.7422 64.1442C10.8263 65.0601 10.3117 66.3023 10.3117 67.5976V101.778C10.3109 105.046 11.1292 108.261 12.692 111.131C14.2548 114 16.512 116.432 19.2573 118.203C22.0026 119.975 25.1484 121.03 28.4067 121.272C31.6651 121.514 34.9321 120.935 37.909 119.588C38.7751 122.779 40.0189 125.814 41.5817 128.653C37.1202 130.601 32.2438 131.407 27.3928 130.998C22.5418 130.589 17.869 128.979 13.7964 126.312C9.7238 123.645 6.37963 120.005 4.06591 115.722C1.75218 111.439 0.541755 106.647 0.543948 101.778V67.5976C0.543948 63.7117 2.0876 59.985 4.83533 57.2373C7.58305 54.4896 11.3098 52.9459 15.1956 52.9459ZM142.177 52.9459C146.063 52.9459 149.79 54.4896 152.537 57.2373C155.285 59.985 156.829 63.7117 156.829 67.5976V101.785C156.831 106.65 155.621 111.44 153.309 115.721C150.997 120.002 147.656 123.64 143.586 126.307C139.517 128.973 134.847 130.585 129.999 130.995C125.151 131.406 120.277 130.603 115.817 128.659L116.182 127.995C117.575 125.351 118.702 122.545 119.509 119.601C122.484 120.94 125.748 121.512 129.001 121.266C132.254 121.02 135.394 119.962 138.133 118.191C140.873 116.419 143.125 113.99 144.685 111.124C146.244 108.258 147.061 105.047 147.061 101.785V67.5976C147.061 66.3035 146.547 65.0622 145.633 64.1465C144.718 63.2308 143.478 62.7154 142.183 62.7137H120.479C119.609 59.0401 117.77 55.667 115.153 52.9459H142.177ZM78.6863 0.851013C81.6793 0.851013 84.643 1.44053 87.4082 2.58591C90.1734 3.7313 92.6859 5.41011 94.8023 7.5265C96.9187 9.64289 98.5975 12.1554 99.7429 14.9206C100.888 17.6858 101.478 20.6495 101.478 23.6425C101.478 26.6356 100.888 29.5993 99.7429 32.3645C98.5975 35.1297 96.9187 37.6422 94.8023 39.7586C92.6859 41.875 90.1734 43.5538 87.4082 44.6992C84.643 45.8445 81.6793 46.4341 78.6863 46.4341C72.6416 46.4341 66.8445 44.0328 62.5703 39.7586C58.296 35.4843 55.8948 29.6872 55.8948 23.6425C55.8948 17.5978 58.296 11.8007 62.5703 7.5265C66.8445 3.25226 72.6416 0.851013 78.6863 0.851013ZM130.801 7.36288C133.366 7.36288 135.907 7.86818 138.277 8.84994C140.647 9.83169 142.8 11.2707 144.614 13.0847C146.429 14.8988 147.868 17.0524 148.849 19.4225C149.831 21.7927 150.336 24.333 150.336 26.8985C150.336 29.4639 149.831 32.0042 148.849 34.3744C147.868 36.7446 146.429 38.8982 144.614 40.7122C142.8 42.5263 140.647 43.9652 138.277 44.947C135.907 45.9288 133.366 46.4341 130.801 46.4341C125.62 46.4341 120.651 44.3759 116.987 40.7122C113.323 37.0486 111.265 32.0796 111.265 26.8985C111.265 21.7173 113.323 16.7484 116.987 13.0847C120.651 9.42109 125.62 7.36288 130.801 7.36288ZM26.5719 7.36288C29.1373 7.36288 31.6776 7.86818 34.0478 8.84994C36.418 9.83169 38.5716 11.2707 40.3856 13.0847C42.1997 14.8988 43.6386 17.0524 44.6204 19.4225C45.6021 21.7927 46.1074 24.333 46.1074 26.8985C46.1074 29.4639 45.6021 32.0042 44.6204 34.3744C43.6386 36.7446 42.1997 38.8982 40.3856 40.7122C38.5716 42.5263 36.418 43.9652 34.0478 44.947C31.6776 45.9288 29.1373 46.4341 26.5719 46.4341C21.3907 46.4341 16.4218 44.3759 12.7581 40.7122C9.09448 37.0486 7.03627 32.0796 7.03627 26.8985C7.03627 21.7173 9.09448 16.7484 12.7581 13.0847C16.4218 9.42109 21.3907 7.36288 26.5719 7.36288ZM78.6863 10.6188C75.2322 10.6188 71.9196 11.9909 69.4771 14.4334C67.0347 16.8758 65.6626 20.1884 65.6626 23.6425C65.6626 27.0966 67.0347 30.4093 69.4771 32.8517C71.9196 35.2941 75.2322 36.6663 78.6863 36.6663C82.1404 36.6663 85.453 35.2941 87.8955 32.8517C90.3379 30.4093 91.71 27.0966 91.71 23.6425C91.71 20.1884 90.3379 16.8758 87.8955 14.4334C85.453 11.9909 82.1404 10.6188 78.6863 10.6188ZM130.801 17.1307C129.518 17.1307 128.248 17.3833 127.063 17.8742C125.878 18.3651 124.801 19.0846 123.894 19.9916C122.987 20.8986 122.267 21.9754 121.776 23.1605C121.286 24.3456 121.033 25.6157 121.033 26.8985C121.033 28.1812 121.286 29.4514 121.776 30.6364C122.267 31.8215 122.987 32.8983 123.894 33.8053C124.801 34.7124 125.878 35.4319 127.063 35.9227C128.248 36.4136 129.518 36.6663 130.801 36.6663C133.391 36.6663 135.876 35.6372 137.708 33.8053C139.539 31.9735 140.569 29.489 140.569 26.8985C140.569 24.3079 139.539 21.8234 137.708 19.9916C135.876 18.1598 133.391 17.1307 130.801 17.1307ZM26.5719 17.1307C25.2891 17.1307 24.019 17.3833 22.8339 17.8742C21.6488 18.3651 20.572 19.0846 19.665 19.9916C18.758 20.8986 18.0385 21.9754 17.5476 23.1605C17.0567 24.3456 16.8041 25.6157 16.8041 26.8985C16.8041 28.1812 17.0567 29.4514 17.5476 30.6364C18.0385 31.8215 18.758 32.8983 19.665 33.8053C20.572 34.7124 21.6488 35.4319 22.8339 35.9227C24.019 36.4136 25.2891 36.6663 26.5719 36.6663C29.1624 36.6663 31.6469 35.6372 33.4787 33.8053C35.3106 31.9735 36.3397 29.489 36.3397 26.8985C36.3397 24.3079 35.3106 21.8234 33.4787 19.9916C31.6469 18.1598 29.1624 17.1307 26.5719 17.1307Z" fill="#003049"/>
</svg>
