<svg width="45" height="35" viewBox="0 0 45 35" fill="none" xmlns="http://www.w3.org/2000/svg">
<path d="M23.2827 12.3536L23.2824 12.3534C22.953 12.025 22.5678 11.7635 22.1051 11.7635C21.6423 11.7635 21.2573 12.0251 20.9283 12.3536C20.9283 12.3536 20.9283 12.3536 20.9282 12.3537L16.4673 16.8056L16.4672 16.8055L16.4608 16.8122C16.2787 17.0008 16.1779 17.2534 16.1802 17.5156C16.1825 17.7778 16.2876 18.0286 16.473 18.214C16.6584 18.3994 16.9093 18.5046 17.1714 18.5068C17.4336 18.5091 17.6862 18.4083 17.8748 18.2262L17.8749 18.2262L17.8808 18.2203L21.1045 15.0014V27.5125C21.1045 29.4772 21.5412 31.0093 22.5744 32.0426C23.6077 33.0758 25.1398 33.5125 27.1045 33.5125H34.6045C37.2102 33.5125 39.5863 32.1119 41.295 30.1991C43.0018 28.2884 44.1045 25.7994 44.1045 23.5125C44.1045 20.79 42.992 18.3717 41.3863 16.5974C39.8964 14.9509 37.9537 13.8293 36.029 13.5501C35.4249 6.88731 30.681 0.512512 22.1045 0.512512C14.24 0.512512 8.13553 6.28456 7.64693 14.0302C5.56531 14.7725 3.95964 16.2511 2.86431 17.9425C1.71392 19.7189 1.10449 21.7629 1.10449 23.5125C1.10449 28.8239 5.50924 33.5125 10.6045 33.5125H17.1045C17.3697 33.5125 17.6241 33.4072 17.8116 33.2196C17.9991 33.0321 18.1045 32.7777 18.1045 32.5125C18.1045 32.2473 17.9991 31.9929 17.8116 31.8054C17.6241 31.6179 17.3697 31.5125 17.1045 31.5125H10.6045C6.64677 31.5125 3.10449 27.7934 3.10449 23.5125C3.10449 22.107 3.73037 20.0871 5.00432 18.4222C6.26804 16.7708 8.13291 15.5125 10.6045 15.5125H12.1045C12.3697 15.5125 12.6241 15.4072 12.8116 15.2196C12.9991 15.0321 13.1045 14.7777 13.1045 14.5125C13.1045 14.2473 12.9991 13.9929 12.8116 13.8054C12.6241 13.6179 12.3697 13.5125 12.1045 13.5125H10.6045C10.2922 13.5125 9.99149 13.5325 9.70015 13.5655C10.3393 7.99307 14.6769 2.51251 22.1045 2.51251C26.2533 2.51251 29.2362 4.13379 31.1905 6.4843C33.1556 8.84775 34.1045 11.979 34.1045 15.0125V16.5125C34.1045 16.7777 34.2098 17.0321 34.3974 17.2196C34.5849 17.4072 34.8393 17.5125 35.1045 17.5125C35.3697 17.5125 35.6241 17.4072 35.8116 17.2196C35.9991 17.0321 36.1045 16.7777 36.1045 16.5125V15.5945C38.8087 16.2084 42.1045 19.1514 42.1045 23.5125C42.1045 25.2777 41.2453 27.2891 39.8464 28.8654C38.4492 30.4398 36.5755 31.5125 34.6045 31.5125H27.1045C25.5317 31.5125 24.5731 31.2025 23.9938 30.6232C23.4145 30.0439 23.1045 29.0853 23.1045 27.5125V15.0009L26.3265 18.2166C26.4178 18.3103 26.5265 18.3851 26.6467 18.4369C26.7686 18.4895 26.8998 18.5173 27.0325 18.5186C27.1653 18.5199 27.297 18.4948 27.42 18.4447C27.5429 18.3946 27.6547 18.3205 27.7487 18.2267C27.8427 18.133 27.9171 18.0215 27.9676 17.8986C28.018 17.7758 28.0435 17.6442 28.0426 17.5114C28.0416 17.3786 28.0142 17.2474 27.962 17.1253C27.9103 17.0046 27.8354 16.8952 27.7415 16.8034L23.2827 12.3536Z" fill="#828282" stroke="#828282"/>
</svg>
