<svg width="19" height="19" viewBox="0 0 19 19" fill="none" xmlns="http://www.w3.org/2000/svg">
<path fill-rule="evenodd" clip-rule="evenodd" d="M0.781738 9.78491C0.781738 7.39796 1.72995 5.10878 3.41778 3.42095C5.1056 1.73312 7.39479 0.784912 9.78174 0.784912C12.1687 0.784912 14.4579 1.73312 16.1457 3.42095C17.8335 5.10878 18.7817 7.39796 18.7817 9.78491C18.7817 12.1719 17.8335 14.461 16.1457 16.1489C14.4579 17.8367 12.1687 18.7849 9.78174 18.7849C7.39479 18.7849 5.1056 17.8367 3.41778 16.1489C1.72995 14.461 0.781738 12.1719 0.781738 9.78491ZM9.26814 13.6369L14.4497 7.15931L13.5137 6.41051L9.09534 11.9317L5.96574 9.32411L5.19774 10.2457L9.26814 13.6381V13.6369Z" fill="#303C42"/>
</svg>
