<svg width="22" height="22" viewBox="0 0 22 22" fill="none" xmlns="http://www.w3.org/2000/svg">
<path d="M0.898936 20.3283L0.89897 20.3282L1.87903 16.8983C1.22135 15.7006 0.875159 14.3585 0.875159 13C0.875159 8.51971 4.51987 4.875 9.00016 4.875C13.4804 4.875 17.1252 8.51971 17.1252 13C17.1252 17.4803 13.4804 21.125 9.00016 21.125C7.64141 21.125 6.30003 20.7788 5.10208 20.1209L1.6721 21.1008L0.898936 20.3283ZM0.898936 20.3283C0.836766 20.5466 0.897706 20.7813 1.05827 20.9419M0.898936 20.3283L1.05827 20.9419M2.41043 19.59L3.15385 16.9889L3.15392 16.9886C3.20077 16.8234 3.17764 16.6461 3.09057 16.4985L3.09041 16.4982C2.45898 15.434 2.12516 14.2243 2.12516 13C2.12516 9.20929 5.20944 6.125 9.00016 6.125C12.7909 6.125 15.8752 9.20929 15.8752 13C15.8752 16.7907 12.7911 19.875 9.00016 19.875C7.77582 19.875 6.56583 19.5417 5.50248 18.9103C5.40469 18.852 5.29406 18.8228 5.18341 18.8228C5.12622 18.8228 5.06839 18.8305 5.01182 18.8468L2.41043 19.59ZM2.41043 19.59L5.01147 18.8469L2.41043 19.59ZM18.8723 14.6066L18.8721 14.6068C18.749 14.7352 18.5848 14.8 18.4202 14.8C18.2653 14.8 18.1095 14.7425 17.9885 14.6269C17.7389 14.3884 17.7299 13.9931 17.968 13.7435L17.968 13.7434C19.1982 12.455 19.8752 10.7709 19.8752 9C19.8752 5.20929 16.7909 2.125 13.0002 2.125C11.2288 2.125 9.54492 2.80196 8.25705 4.03209L18.8723 14.6066ZM18.8723 14.6066C20.3246 13.0854 21.1252 11.0938 21.1252 9C21.1252 4.51971 17.4804 0.875 13.0002 0.875C10.9058 0.875 8.91445 1.67525 7.3938 3.12838L7.39377 3.1284M18.8723 14.6066L7.39377 3.1284M7.39377 3.1284C7.14451 3.36673 7.13502 3.76227 7.3737 4.01201L7.39377 3.1284ZM1.05827 20.9419C1.1773 21.0609 1.33673 21.125 1.50016 21.125M1.05827 20.9419L1.50016 21.125M1.50016 21.125C1.55735 21.125 1.61518 21.1172 1.67175 21.1009L1.50016 21.125ZM7.37371 4.01203C7.61136 4.26123 8.00728 4.27087 8.257 4.03214L7.37371 4.01203ZM12.0002 12.125C12.3455 12.125 12.6252 11.845 12.6252 11.5C12.6252 11.155 12.3458 10.875 12.0002 10.875H6.00016C5.65483 10.875 5.37516 11.155 5.37516 11.5C5.37516 11.845 5.65483 12.125 6.00016 12.125H12.0002ZM11.0002 15.125C11.3455 15.125 11.6252 14.845 11.6252 14.5C11.6252 14.155 11.3458 13.875 11.0002 13.875H6.00016C5.65483 13.875 5.37516 14.155 5.37516 14.5C5.37516 14.845 5.65483 15.125 6.00016 15.125H11.0002Z" fill="#9B9B9B" stroke="#9B9B9B" stroke-width="0.25"/>
</svg>
