<svg width="21" height="21" viewBox="0 0 21 21" fill="none" xmlns="http://www.w3.org/2000/svg">
<path d="M13.6607 20.6576H6.99368V11.3238C6.99368 11.1469 7.06392 10.9774 7.18895 10.8523C7.31399 10.7273 7.48356 10.6571 7.66039 10.6571H12.994C13.1708 10.6571 13.3404 10.7273 13.4654 10.8523C13.5905 10.9774 13.6607 11.1469 13.6607 11.3238V20.6576ZM19.661 20.6576H13.6607V17.4352C13.6607 17.2584 13.7309 17.0888 13.856 16.9638C13.981 16.8387 14.1506 16.7685 14.3274 16.7685H19.661C19.8378 16.7685 20.0074 16.8387 20.1325 16.9638C20.2575 17.0888 20.3277 17.2584 20.3277 17.4352V19.9909C20.3277 20.1677 20.2575 20.3373 20.1325 20.4623C20.0074 20.5874 19.8378 20.6576 19.661 20.6576ZM6.99368 20.6576V15.2129C6.99368 15.036 6.92344 14.8665 6.79841 14.7414C6.67338 14.6164 6.5038 14.5462 6.32698 14.5462H0.993362C0.816542 14.5462 0.646964 14.6164 0.521933 14.7414C0.396902 14.8665 0.32666 15.036 0.32666 15.2129V19.9909C0.32666 20.1677 0.396902 20.3373 0.521933 20.4623C0.646964 20.5874 0.816542 20.6576 0.993362 20.6576H6.99368ZM9.00046 3.00443L10.0105 0.863203C10.0378 0.801992 10.0822 0.749995 10.1384 0.713504C10.1946 0.677013 10.2602 0.657593 10.3272 0.657593C10.3942 0.657593 10.4598 0.677013 10.516 0.713504C10.5722 0.749995 10.6166 0.801992 10.6439 0.863203L11.655 3.00443L13.9129 3.35C14.203 3.39445 14.3185 3.7678 14.1085 3.98115L12.4751 5.6479L12.8607 8.00136C12.9096 8.3036 12.6073 8.53472 12.3473 8.39138L10.3272 7.28021L8.30709 8.39138C8.04818 8.53361 7.74483 8.3036 7.79373 8.00136L8.1793 5.6479L6.54588 3.98115C6.33476 3.7678 6.45143 3.39445 6.74034 3.35L9.00046 3.00443Z" fill="#003049"/>
<path d="M13.6607 20.6576H6.99368M13.6607 20.6576V11.3238C13.6607 11.1469 13.5905 10.9774 13.4654 10.8523C13.3404 10.7273 13.1708 10.6571 12.994 10.6571H7.66039C7.48356 10.6571 7.31399 10.7273 7.18895 10.8523C7.06392 10.9774 6.99368 11.1469 6.99368 11.3238V20.6576M13.6607 20.6576H19.661C19.8378 20.6576 20.0074 20.5874 20.1325 20.4623C20.2575 20.3373 20.3277 20.1677 20.3277 19.9909V17.4352C20.3277 17.2584 20.2575 17.0888 20.1325 16.9638C20.0074 16.8387 19.8378 16.7685 19.661 16.7685H14.3274C14.1506 16.7685 13.981 16.8387 13.856 16.9638C13.7309 17.0888 13.6607 17.2584 13.6607 17.4352V20.6576ZM6.99368 20.6576V15.2129C6.99368 15.036 6.92344 14.8665 6.79841 14.7414C6.67338 14.6164 6.5038 14.5462 6.32698 14.5462H0.993362C0.816542 14.5462 0.646964 14.6164 0.521933 14.7414C0.396902 14.8665 0.32666 15.036 0.32666 15.2129V19.9909C0.32666 20.1677 0.396902 20.3373 0.521933 20.4623C0.646964 20.5874 0.816542 20.6576 0.993362 20.6576H6.99368ZM9.00046 3.00443L10.0105 0.863203C10.0378 0.801992 10.0822 0.749995 10.1384 0.713504C10.1946 0.677013 10.2602 0.657593 10.3272 0.657593C10.3942 0.657593 10.4598 0.677013 10.516 0.713504C10.5722 0.749995 10.6166 0.801992 10.6439 0.863203L11.655 3.00443L13.9129 3.35C14.203 3.39445 14.3185 3.7678 14.1085 3.98115L12.4751 5.6479L12.8607 8.00136C12.9096 8.3036 12.6073 8.53472 12.3473 8.39138L10.3272 7.28021L8.30709 8.39138C8.04818 8.53361 7.74483 8.3036 7.79373 8.00136L8.1793 5.6479L6.54588 3.98115C6.33476 3.7678 6.45143 3.39445 6.74034 3.35L9.00046 3.00443Z" stroke="white" stroke-width="0.25" stroke-linecap="round" stroke-linejoin="round"/>
</svg>
