<svg width="23" height="20" viewBox="0 0 23 20" fill="none" xmlns="http://www.w3.org/2000/svg">
<path d="M11.5002 6.15787C12.3162 6.15787 13.0989 5.8337 13.6759 5.25666C14.2529 4.67963 14.5771 3.897 14.5771 3.08095C14.5771 2.2649 14.2529 1.48227 13.6759 0.905238C13.0989 0.328203 12.3162 0.00402832 11.5002 0.00402832C10.6841 0.00402832 9.90151 0.328203 9.32447 0.905238C8.74744 1.48227 8.42326 2.2649 8.42326 3.08095C8.42326 3.897 8.74744 4.67963 9.32447 5.25666C9.90151 5.8337 10.6841 6.15787 11.5002 6.15787ZM6.8848 3.46557C6.8848 3.81913 6.81517 4.16922 6.67986 4.49587C6.54456 4.82251 6.34625 5.11931 6.09624 5.36932C5.84624 5.61932 5.54944 5.81763 5.2228 5.95294C4.89615 6.08824 4.54605 6.15787 4.1925 6.15787C3.83894 6.15787 3.48884 6.08824 3.16219 5.95294C2.83555 5.81763 2.53875 5.61932 2.28875 5.36932C2.03874 5.11931 1.84043 4.82251 1.70513 4.49587C1.56983 4.16922 1.50019 3.81913 1.50019 3.46557C1.50019 2.75152 1.78384 2.06672 2.28875 1.56182C2.79365 1.05691 3.47845 0.773259 4.1925 0.773259C4.90654 0.773259 5.59134 1.05691 6.09624 1.56182C6.60115 2.06672 6.8848 2.75152 6.8848 3.46557ZM21.5002 3.46557C21.5002 3.81913 21.4305 4.16922 21.2952 4.49587C21.1599 4.82251 20.9616 5.11931 20.7116 5.36932C20.4616 5.61932 20.1648 5.81763 19.8382 5.95294C19.5115 6.08824 19.1614 6.15787 18.8079 6.15787C18.4543 6.15787 18.1042 6.08824 17.7776 5.95294C17.4509 5.81763 17.1541 5.61932 16.9041 5.36932C16.6541 5.11931 16.4558 4.82251 16.3205 4.49587C16.1852 4.16922 16.1156 3.81913 16.1156 3.46557C16.1156 2.75152 16.3992 2.06672 16.9041 1.56182C17.409 1.05691 18.0938 0.773259 18.8079 0.773259C19.5219 0.773259 20.2067 1.05691 20.7116 1.56182C21.2165 2.06672 21.5002 2.75152 21.5002 3.46557ZM6.40557 7.69634C5.96785 8.2416 5.7298 8.92019 5.73096 9.61941V15.3886C5.73096 16.3386 5.96019 17.2348 6.36711 18.0248C5.78086 18.3331 5.12493 18.4847 4.46286 18.465C3.8008 18.4453 3.15503 18.255 2.58812 17.9125C2.0212 17.57 1.55235 17.0868 1.22699 16.5099C0.901618 15.933 0.730759 15.2818 0.730957 14.6194V9.61941C0.730957 9.10938 0.933567 8.62024 1.29421 8.25959C1.65486 7.89895 2.144 7.69634 2.65403 7.69634H6.40557ZM16.6333 18.0248C17.0527 17.2094 17.2708 16.3055 17.2694 15.3886V9.61941C17.2694 8.89172 17.0171 8.22326 16.5948 7.69634H20.3463C20.8564 7.69634 21.3455 7.89895 21.7062 8.25959C22.0668 8.62024 22.2694 9.10938 22.2694 9.61941V14.6194C22.2696 15.2818 22.0988 15.933 21.7734 16.5099C21.448 17.0868 20.9792 17.57 20.4123 17.9125C19.8453 18.255 19.1996 18.4453 18.5375 18.465C17.8754 18.4847 17.2195 18.3331 16.6333 18.0248ZM8.80788 7.69634C8.29785 7.69634 7.80871 7.89895 7.44806 8.25959C7.08741 8.62024 6.8848 9.10938 6.8848 9.61941V15.3886C6.8848 16.6127 7.37107 17.7867 8.23662 18.6522C9.10217 19.5178 10.2761 20.004 11.5002 20.004C12.7243 20.004 13.8982 19.5178 14.7638 18.6522C15.6293 17.7867 16.1156 16.6127 16.1156 15.3886V9.61941C16.1156 9.10938 15.913 8.62024 15.5523 8.25959C15.1917 7.89895 14.7025 7.69634 14.1925 7.69634H8.80788Z" fill="#003049"/>
</svg>
