<svg width="20" height="20" viewBox="0 0 20 20" fill="none" xmlns="http://www.w3.org/2000/svg">
<path d="M18.7817 10.8554C18.0618 14.4552 15.3475 17.8448 11.539 18.6022C9.68144 18.9721 7.75458 18.7465 6.03271 17.9576C4.31085 17.1687 2.88176 15.8567 1.94895 14.2084C1.01613 12.56 0.627136 10.6594 0.837352 8.77713C1.04757 6.89485 1.84628 5.12687 3.11975 3.72493C5.73176 0.847971 10.1422 0.0560163 13.742 1.49593" fill="white"/>
<path d="M18.7817 10.8554C18.0618 14.4552 15.3475 17.8448 11.539 18.6022C9.68144 18.9721 7.75458 18.7465 6.03271 17.9576C4.31085 17.1687 2.88176 15.8567 1.94895 14.2084C1.01613 12.56 0.627136 10.6594 0.837352 8.77713C1.04757 6.89485 1.84628 5.12687 3.11975 3.72493C5.73176 0.847971 10.1422 0.0560162 13.742 1.49593" stroke="#ACB1B3" stroke-width="1.5" stroke-linecap="round" stroke-linejoin="round"/>
<path d="M6.54297 9.41543L10.1428 13.0152L18.7823 3.65576" stroke="#ACB1B3" stroke-width="1.5" stroke-linecap="round" stroke-linejoin="round"/>
</svg>
